<svg width="473.654" height="473.654" xmlns="http://www.w3.org/2000/svg">
 <defs>
  <filter height="200%" width="200%" y="-50%" x="-50%" id="svg_136_blur">
   <feGaussianBlur stdDeviation="7.1" in="SourceGraphic"/>
  </filter>
 </defs>
 <g>
  <title>background</title>
  <rect fill="none" id="canvas_background" height="602" width="802" y="-1" x="-1"/>
 </g>
 <g>
  <title>Layer 1</title>
  <circle id="svg_1" fill="#B9E8EA" r="236.827" cy="236.827" cx="236.827"/>
  <path id="svg_2" fill="#9D9E9E" d="m14.367,318.29c33.215,90.662 120.276,155.364 222.445,155.364c102.176,0 189.237,-64.702 222.452,-155.364l-444.897,0z"/>
  <g id="svg_3">
   <path id="svg_4" fill="#CB8F5B" d="m398.822,239.101c-7.184,0 -29.621,-5.385 -29.621,-5.385c-5.71,-0.946 -16.596,-8.784 -23.372,-9.611c-9.136,-1.114 -8.941,0.636 -23.301,0.636c-3.478,0 -16.159,-0.901 -16.159,-0.901s-12.311,13.709 -21.54,13.466c-9.33,-0.247 -25.53,-18.171 -36.053,-18.171c-160.233,0 -180.262,30.571 -180.262,30.571l0,53.109c0,0 8.702,28.705 180.27,28.705s178.161,-28.705 178.161,-28.705l0,-53.113l-28.123,-10.601z"/>
   <path id="svg_5" fill="#CB8F5B" d="m248.775,245.163c-160.233,0 -180.262,30.575 -180.262,30.575l0,53.102c0,0 8.702,28.709 180.27,28.709s178.161,-28.709 178.161,-28.709l0,-53.102c-0.001,-0.001 -17.924,-30.575 -178.169,-30.575z"/>
  </g>
  <g id="svg_6">
   <path id="svg_7" fill="#B5794D" d="m247.593,240.679c-98.904,0 -179.081,11.05 -179.081,30.047l0,10.011c0,-18.993 80.173,-30.044 179.081,-30.044s179.088,11.054 179.088,30.044l0,-10.011c0.001,-18.997 -80.176,-30.047 -179.088,-30.047z"/>
   <path id="svg_8" fill="#B5794D" d="m248.779,300.508c-67.469,0 -177.102,1.582 -177.102,1.582l0,2.636c0,0 109.637,5.007 177.102,5.007c67.477,0 177.106,-5.007 177.106,-5.007l0,-2.636c0.004,0 -109.629,-1.582 -177.106,-1.582z"/>
  </g>
  <path id="svg_9" fill="#A56F4A" d="m71.676,304.727c0,0 109.637,5.007 177.102,5.007c67.477,0 177.106,-5.007 177.106,-5.007l-354.208,0z"/>
  <path id="svg_10" fill="#B5794D" d="m247.593,352.694c-98.904,0 -179.081,-9.693 -179.081,-26.356l0,2.502c0,16.667 80.173,30.175 179.081,30.175s179.088,-13.507 179.088,-30.175l0,-2.502c0.001,16.663 -80.176,26.356 -179.088,26.356z"/>
  <g id="svg_11">
   <path id="svg_12" fill="#3D3027" d="m264.728,314.218c-5.46,0 -9.884,4.42 -9.884,9.88l0,22.138l12.479,0c2.438,-0.034 4.873,-0.079 7.288,-0.116l0,-22.022c0.001,-5.46 -4.427,-9.88 -9.883,-9.88z"/>
   <path id="svg_13" fill="#3D3027" d="m267.323,346.236l7.288,0l0,-0.116c-2.415,0.037 -4.846,0.082 -7.288,0.116z"/>
   <path id="svg_14" fill="#3D3027" d="m232.112,314.218c-5.131,0 -9.289,4.42 -9.289,9.88l0,22.071c1.511,0.026 3.029,0.045 4.547,0.067l14.027,0l0,-22.138c0,-5.46 -4.158,-9.88 -9.285,-9.88z"/>
   <path id="svg_15" fill="#3D3027" d="m201.671,314.218c-4.91,0 -8.896,4.42 -8.896,9.88l0,21.14c5.793,0.262 11.731,0.482 17.793,0.654l0,-21.798c0,-5.456 -3.986,-9.876 -8.897,-9.876z"/>
   <path id="svg_16" fill="#3D3027" d="m173.598,313.029c-4.686,0 -8.496,4.42 -8.496,9.884l0,20.818c5.505,0.378 11.174,0.722 17,1.021l0,-21.839c0.004,-5.464 -3.803,-9.884 -8.504,-9.884z"/>
  </g>
  <path id="svg_17" fill="#774F39" d="m165.102,322.908l0,20.818c1.343,0.09 1.937,0.18 3.298,0.266l0.202,-29.071c-2.124,1.795 -3.5,4.708 -3.5,7.987z"/>
  <g id="svg_18">
   <path id="svg_19" fill="#3D3027" d="m148.102,312.236c-4.581,0 -8.294,4.428 -8.294,9.887l0,19.565c5.299,0.55 10.845,1.055 16.6,1.515l0,-21.084c0.003,-5.456 -3.717,-9.883 -8.306,-9.883z"/>
   <path id="svg_20" fill="#3D3027" d="m127.351,311.443c-4.039,0 -7.315,4.424 -7.315,9.887l0,17.972c4.626,0.658 9.51,1.264 14.629,1.832l0,-19.804c0.001,-5.463 -3.275,-9.887 -7.314,-9.887z"/>
   <path id="svg_21" fill="#3D3027" d="m111.338,311.05c-3.276,0 -5.931,4.424 -5.931,9.887l0,15.998c3.721,0.696 7.677,1.35 11.858,1.971l0,-17.969c0.001,-5.463 -2.651,-9.887 -5.927,-9.887z"/>
   <path id="svg_22" fill="#3D3027" d="m98.097,309.076c-2.726,0 -4.944,4.42 -4.944,9.884l0,15.34c3.051,0.763 6.35,1.488 9.887,2.18l0,-17.52c0,-5.464 -2.217,-9.884 -4.943,-9.884z"/>
   <path id="svg_23" fill="#3D3027" d="m87.226,307.89c-1.963,0 -3.556,4.424 -3.556,9.88l0,13.765c2.165,0.748 4.536,1.462 7.116,2.154l0,-15.919c0,-5.456 -1.601,-9.88 -3.56,-9.88z"/>
   <path id="svg_24" fill="#3D3027" d="m79.324,307.486c-1.313,0 -2.375,4.428 -2.375,9.887l0,11.443c1.414,0.688 2.999,1.357 4.742,2.012l0,-13.451c-0.004,-5.463 -1.062,-9.891 -2.367,-9.891z"/>
  </g>
  <g id="svg_25">
   <path id="svg_26" fill="#513E31" d="m264.728,314.218c0,0 4.087,3.684 5.665,8.956c1.582,5.273 4.218,23.062 4.218,23.062l0,-22.138c0.001,-5.46 -4.427,-9.88 -9.883,-9.88z"/>
   <path id="svg_27" fill="#513E31" d="m232.31,314.218c0,0 4.802,2.633 6.196,7.905c1.391,5.269 2.494,24.113 2.494,24.113l0,-22.138c0.004,-5.46 -3.885,-9.88 -8.69,-9.88z"/>
  </g>
  <g id="svg_28">
   <path id="svg_29" fill="#774F39" d="m192.775,324.098l0,21.14c0.826,0.03 1.675,0.064 2.506,0.097l0,-28.099c-1.549,1.776 -2.506,4.192 -2.506,6.862z"/>
   <path id="svg_30" fill="#774F39" d="m146.139,312.524c-3.635,1.058 -6.331,4.947 -6.331,9.596l0,19.565c1.978,0.202 4.405,0.396 6.451,0.595l-0.12,-29.756z"/>
   <path id="svg_31" fill="#774F39" d="m120.037,321.33l0,17.972c2.184,0.314 4.428,0.61 6.72,0.897l0,-28.716c-3.759,0.409 -6.72,4.653 -6.72,9.847z"/>
   <path id="svg_32" fill="#774F39" d="m111.338,311.05c-3.276,0 -5.931,4.424 -5.931,9.887l0,15.998c2.113,0.393 4.327,0.774 6.597,1.141l0,-26.959c-0.221,-0.044 -0.441,-0.067 -0.666,-0.067z"/>
  </g>
  <path id="svg_33" fill="#704936" d="m98.097,309.076c-2.726,0 -4.944,4.42 -4.944,9.884l0,15.34c2.12,0.531 4.368,1.04 6.727,1.537l0,-26.087c-0.553,-0.435 -1.152,-0.674 -1.783,-0.674z"/>
  <path id="svg_34" fill="#684432" d="m87.226,307.89c-1.963,0 -3.556,4.424 -3.556,9.88l0,13.765c1.586,0.546 3.324,1.073 5.134,1.589l0,-24.191c-0.472,-0.661 -1.006,-1.043 -1.578,-1.043z"/>
  <path id="svg_35" fill="#5B3C2C" d="m79.324,307.486c-1.313,0 -2.375,4.428 -2.375,9.887l0,11.443c1.04,0.505 2.203,0.998 3.429,1.485l0,-21.768c-0.325,-0.658 -0.676,-1.047 -1.054,-1.047z"/>
  <g id="svg_36">
   <path id="svg_37" fill="#3D3027" d="m222.953,346.12l0,0.116l7.288,0c-2.449,-0.034 -4.872,-0.079 -7.288,-0.116z"/>
   <path id="svg_38" fill="#3D3027" d="m295.89,314.218c-4.91,0 -8.893,4.42 -8.893,9.88l0,21.798c6.062,-0.172 11.997,-0.393 17.785,-0.654l0,-21.14c0.004,-5.464 -3.978,-9.884 -8.892,-9.884z"/>
   <path id="svg_39" fill="#3D3027" d="m323.959,313.029c-4.689,0 -8.496,4.42 -8.496,9.884l0,21.839c5.826,-0.299 11.495,-0.643 17,-1.021l0,-20.818c0,-5.464 -3.811,-9.884 -8.504,-9.884z"/>
  </g>
  <path id="svg_40" fill="#774F39" d="m328.967,314.924l0.198,29.071c1.357,-0.086 1.952,-0.176 3.298,-0.266l0,-20.818c0,-3.282 -1.38,-6.195 -3.496,-7.987z"/>
  <g id="svg_41">
   <path id="svg_42" fill="#3D3027" d="m349.463,312.236c-4.592,0 -8.309,4.428 -8.309,9.887l0,21.084c5.755,-0.46 11.301,-0.965 16.607,-1.515l0,-19.565c0,-5.464 -3.721,-9.891 -8.298,-9.891z"/>
   <path id="svg_43" fill="#3D3027" d="m370.21,311.443c-4.035,0 -7.315,4.424 -7.315,9.887l0,19.805c5.123,-0.568 10.003,-1.174 14.633,-1.832l0,-17.973c0.001,-5.463 -3.275,-9.887 -7.318,-9.887z"/>
   <path id="svg_44" fill="#3D3027" d="m386.223,311.05c-3.272,0 -5.931,4.424 -5.931,9.887l0,17.969c4.188,-0.621 8.145,-1.275 11.866,-1.971l0,-15.998c0.004,-5.463 -2.659,-9.887 -5.935,-9.887z"/>
   <path id="svg_45" fill="#3D3027" d="m399.465,309.076c-2.726,0 -4.94,4.42 -4.94,9.884l0,17.52c3.538,-0.692 6.836,-1.421 9.887,-2.18l0,-15.34c0,-5.464 -2.213,-9.884 -4.947,-9.884z"/>
   <path id="svg_46" fill="#3D3027" d="m410.34,307.89c-1.967,0 -3.56,4.424 -3.56,9.88l0,15.919c2.577,-0.696 4.951,-1.406 7.116,-2.154l0,-13.765c0.004,-5.456 -1.589,-9.88 -3.556,-9.88z"/>
   <path id="svg_47" fill="#3D3027" d="m418.241,307.486c-1.305,0 -2.367,4.428 -2.367,9.887l0,13.455c1.739,-0.654 3.332,-1.324 4.746,-2.012l0,-11.439c0,-5.463 -1.062,-9.891 -2.379,-9.891z"/>
  </g>
  <g id="svg_48">
   <path id="svg_49" fill="#774F39" d="m302.285,317.236l0,28.099c0.83,-0.034 1.679,-0.067 2.502,-0.097l0,-21.14c-0.001,-2.67 -0.954,-5.086 -2.502,-6.862z"/>
   <path id="svg_50" fill="#774F39" d="m351.426,312.524l-0.12,29.76c2.046,-0.194 4.476,-0.389 6.454,-0.595l0,-19.565c0.001,-4.653 -2.699,-8.542 -6.334,-9.6z"/>
   <path id="svg_51" fill="#774F39" d="m370.809,311.484l0,28.716c2.292,-0.288 4.536,-0.58 6.72,-0.897l0,-17.973c0,-5.194 -2.966,-9.438 -6.72,-9.846z"/>
   <path id="svg_52" fill="#774F39" d="m386.223,311.05c-0.224,0 -0.441,0.026 -0.662,0.067l0,26.959c2.266,-0.37 4.476,-0.748 6.597,-1.141l0,-15.998c0.004,-5.463 -2.659,-9.887 -5.935,-9.887z"/>
  </g>
  <path id="svg_53" fill="#704936" d="m399.465,309.076c-0.628,0 -1.227,0.239 -1.78,0.673l0,26.087c2.356,-0.497 4.603,-1.01 6.728,-1.537l0,-15.34c-0.001,-5.463 -2.214,-9.883 -4.948,-9.883z"/>
  <path id="svg_54" fill="#684432" d="m410.34,307.89c-0.572,0 -1.107,0.385 -1.586,1.043l0,24.191c1.814,-0.52 3.556,-1.043 5.142,-1.589l0,-13.765c0.004,-5.456 -1.589,-9.88 -3.556,-9.88z"/>
  <path id="svg_55" fill="#5B3C2C" d="m418.241,307.486c-0.378,0 -0.733,0.389 -1.055,1.047l0,21.768c1.227,-0.486 2.39,-0.984 3.429,-1.485l0,-11.439c0.005,-5.463 -1.057,-9.891 -2.374,-9.891z"/>
  <g id="svg_56">
   <path id="svg_57" fill="#3D3027" d="m270.394,268.09c-1.578,-5.265 -5.665,-8.96 -5.665,-8.96c-5.46,0 -9.884,4.424 -9.884,9.884l0,24.648c5.621,0.004 11.484,0.022 17.52,0.049c-0.677,-12.921 -1.399,-23.699 -1.971,-25.621z"/>
   <path id="svg_58" fill="#3D3027" d="m238.51,267.039c-1.361,-5.146 -5.965,-7.775 -6.178,-7.891c-0.071,0 -0.146,-0.011 -0.221,-0.011c-5.131,0 -9.289,4.424 -9.289,9.884l0,24.704c5.86,-0.026 11.574,-0.041 17.071,-0.052c-0.392,-13.411 -0.871,-24.682 -1.383,-26.634z"/>
   <path id="svg_59" fill="#3D3027" d="m235.223,259.713c3.369,1.357 5.781,5 5.781,9.304l0,24.648l0.393,0l0,-24.648c0,-4.304 -2.577,-7.946 -6.174,-9.304z"/>
   <path id="svg_60" fill="#3D3027" d="m201.671,260.712c-2.513,0 -4.768,1.178 -6.387,3.048l0,30.126c5.134,-0.037 10.243,-0.071 15.284,-0.101l0,-23.189c0,-5.464 -3.986,-9.884 -8.897,-9.884zm-6.503,3.179c0.037,-0.045 0.075,-0.09 0.112,-0.135l0,-0.022c-0.041,0.048 -0.07,0.108 -0.112,0.157z"/>
   <path id="svg_61" fill="#3D3027" d="m173.598,262.952c-1.87,0 -3.594,0.711 -4.996,1.903l-0.067,29.247c4.495,-0.037 9.024,-0.079 13.571,-0.116l0,-21.155c0,-5.451 -3.807,-9.879 -8.508,-9.879z"/>
  </g>
  <g id="svg_62">
   <path id="svg_63" fill="#774F39" d="m168.442,264.994c0.06,-0.045 0.108,-0.086 0.161,-0.135l0,-0.011c-0.053,0.041 -0.105,0.097 -0.161,0.146z"/>
   <path id="svg_64" fill="#774F39" d="m168.442,264.994c-0.15,0.142 -0.307,0.284 -0.456,0.438c-0.082,0.09 -0.165,0.172 -0.247,0.262c-0.146,0.161 -0.288,0.337 -0.43,0.516c-0.067,0.086 -0.131,0.168 -0.202,0.258c-0.18,0.251 -0.352,0.509 -0.516,0.782c-0.011,0.019 -0.026,0.034 -0.037,0.056c-0.168,0.288 -0.322,0.598 -0.467,0.909c-0.049,0.101 -0.082,0.206 -0.123,0.307c-0.09,0.221 -0.179,0.441 -0.258,0.673c-0.041,0.12 -0.079,0.243 -0.116,0.37c-0.071,0.224 -0.131,0.445 -0.18,0.669c-0.034,0.131 -0.064,0.262 -0.09,0.393c-0.049,0.239 -0.082,0.49 -0.116,0.733c-0.015,0.12 -0.034,0.236 -0.049,0.359c-0.034,0.37 -0.06,0.74 -0.06,1.118l0,21.301c1.141,-0.004 2.285,-0.015 3.429,-0.03l0.067,-29.247c-0.041,0.047 -0.093,0.084 -0.149,0.133z"/>
  </g>
  <g id="svg_65">
   <path id="svg_66" fill="#3D3027" d="m148.102,265.588c-0.681,0 -1.335,0.108 -1.963,0.292l0.037,28.454c3.362,-0.037 6.78,-0.075 10.231,-0.108l0,-18.754c0.004,-5.464 -3.716,-9.884 -8.305,-9.884z"/>
   <path id="svg_67" fill="#3D3027" d="m143.622,267.163c0.755,-0.58 1.589,-1.013 2.487,-1.279c-0.898,0.265 -1.732,0.695 -2.487,1.279z"/>
   <path id="svg_68" fill="#3D3027" d="m127.351,266.381c-0.202,0 -0.393,0.015 -0.595,0.037l0,28.118c2.58,-0.019 5.22,-0.052 7.905,-0.082l0,-18.189c0.005,-5.464 -3.271,-9.884 -7.31,-9.884z"/>
   <path id="svg_69" fill="#3D3027" d="m112.004,268.681l0,26.035c1.716,-0.022 3.478,-0.041 5.265,-0.064l0,-16.151c-0.003,-5.086 -2.303,-9.27 -5.265,-9.82z"/>
   <path id="svg_70" fill="#3D3027" d="m99.877,272.054l0,22.811c1.028,-0.019 2.087,-0.034 3.16,-0.045l0,-13.552c0.003,-4.195 -1.309,-7.778 -3.16,-9.214z"/>
   <path id="svg_71" fill="#3D3027" d="m88.452,273.06c0.127,0.131 0.232,0.37 0.352,0.539l0,-0.12c-0.109,-0.154 -0.225,-0.296 -0.352,-0.419zm0.352,0.538l0,21.413c0.647,-0.011 1.309,-0.022 1.982,-0.03l0,-12.662c0,-3.852 -0.819,-7.094 -1.982,-8.721z"/>
   <path id="svg_72" fill="#3D3027" d="m80.378,276.512l0,18.608c0.423,-0.004 0.868,-0.011 1.313,-0.022l0,-9.742c-0.004,-3.875 -0.539,-7.218 -1.313,-8.844z"/>
  </g>
  <g id="svg_73">
   <path id="svg_74" fill="#513E31" d="m264.728,259.134c0,0 4.087,3.691 5.665,8.96c0.572,1.922 1.294,12.7 1.971,25.62c0.744,0.004 1.492,0.004 2.251,0.007l0,-24.704c-0.003,-5.463 -4.431,-9.883 -9.887,-9.883z"/>
   <path id="svg_75" fill="#513E31" d="m232.31,259.134c0,0 0.015,0.004 0.019,0.011c1.017,0.019 1.982,0.224 2.891,0.565c-0.913,-0.367 -1.882,-0.576 -2.91,-0.576z"/>
   <path id="svg_76" fill="#513E31" d="m235.223,259.713c-0.909,-0.344 -1.874,-0.546 -2.891,-0.565c0.217,0.12 4.817,2.745 6.178,7.891c0.512,1.952 0.991,13.227 1.384,26.633c0.374,-0.004 0.744,-0.004 1.111,-0.004l0,-24.648c-0.001,-4.307 -2.413,-7.949 -5.782,-9.307z"/>
  </g>
  <g id="svg_77">
   <path id="svg_78" fill="#774F39" d="m193.448,266.819c0,0.011 0,0.019 -0.004,0.026c-0.209,0.572 -0.378,1.171 -0.486,1.791c0,0.007 -0.004,0.019 -0.004,0.034c-0.112,0.621 -0.176,1.26 -0.176,1.922l0,23.309c0.838,-0.011 1.672,-0.019 2.506,-0.022l0,-30.152c-0.774,0.896 -1.402,1.94 -1.836,3.092z"/>
   <polygon id="svg_79" fill="#774F39" points="146.109,265.884 146.139,265.88 146.139,265.876  "/>
   <path id="svg_80" fill="#774F39" d="m146.139,265.88c-0.011,0 -0.022,0.007 -0.03,0.007c-0.894,0.262 -1.728,0.699 -2.487,1.279c-0.004,0 -0.007,0.004 -0.015,0.004c-0.363,0.28 -0.703,0.598 -1.021,0.939c-0.034,0.034 -0.064,0.064 -0.09,0.094c-0.31,0.34 -0.606,0.707 -0.871,1.099c-0.015,0.026 -0.026,0.049 -0.045,0.071c-0.262,0.396 -0.497,0.811 -0.703,1.253c-0.007,0.019 -0.026,0.034 -0.041,0.06c-0.191,0.426 -0.363,0.883 -0.509,1.343c-0.026,0.079 -0.049,0.157 -0.075,0.236c-0.131,0.456 -0.236,0.924 -0.31,1.41c-0.011,0.079 -0.022,0.157 -0.034,0.243c-0.071,0.512 -0.108,1.017 -0.108,1.552l0,18.922c2.094,-0.022 4.222,-0.049 6.368,-0.064l-0.029,-28.448z"/>
   <path id="svg_81" fill="#774F39" d="m126.106,266.531c-0.019,0 -0.034,0.004 -0.052,0.011c-0.206,0.045 -0.404,0.116 -0.602,0.183c-0.026,0.011 -0.056,0.019 -0.086,0.034c-0.187,0.071 -0.37,0.15 -0.55,0.239c-0.037,0.022 -0.075,0.037 -0.108,0.056c-0.176,0.09 -0.337,0.191 -0.501,0.295c-0.045,0.03 -0.093,0.06 -0.135,0.09c-0.157,0.097 -0.307,0.217 -0.452,0.337c-0.052,0.034 -0.105,0.079 -0.153,0.123c-0.135,0.116 -0.273,0.236 -0.404,0.366c-0.052,0.052 -0.108,0.108 -0.161,0.157c-0.123,0.135 -0.243,0.258 -0.359,0.396c-0.056,0.071 -0.112,0.146 -0.172,0.213c-0.105,0.135 -0.209,0.273 -0.31,0.415c-0.06,0.082 -0.12,0.172 -0.176,0.262c-0.09,0.135 -0.18,0.277 -0.269,0.419c-0.056,0.097 -0.112,0.213 -0.172,0.314c-0.071,0.142 -0.15,0.277 -0.221,0.423c-0.06,0.12 -0.108,0.247 -0.165,0.37c-0.06,0.135 -0.127,0.284 -0.183,0.426c-0.056,0.138 -0.093,0.273 -0.146,0.415c-0.049,0.142 -0.097,0.284 -0.142,0.426c-0.052,0.157 -0.093,0.31 -0.135,0.471c-0.03,0.135 -0.071,0.269 -0.101,0.415c-0.037,0.176 -0.071,0.359 -0.101,0.535c-0.026,0.131 -0.052,0.251 -0.071,0.389c-0.03,0.206 -0.052,0.415 -0.075,0.621c-0.011,0.116 -0.026,0.228 -0.037,0.337c-0.019,0.329 -0.037,0.658 -0.037,0.987l0,18.358c2.195,-0.026 4.439,-0.056 6.72,-0.082l0,-28.118c-0.21,0.027 -0.435,0.064 -0.644,0.117z"/>
   <path id="svg_82" fill="#774F39" d="m111.338,268.617c-3.276,0 -5.931,4.428 -5.931,9.884l0,16.293c2.132,-0.026 4.327,-0.052 6.597,-0.079l0,-26.035c-0.221,-0.036 -0.441,-0.063 -0.666,-0.063z"/>
  </g>
  <path id="svg_83" fill="#704936" d="m99.873,272.054c-0.135,-0.105 -0.269,-0.198 -0.415,-0.284c-0.011,0 -0.011,-0.007 -0.015,-0.007c-0.135,-0.079 -0.277,-0.15 -0.411,-0.198c-0.034,-0.015 -0.079,-0.026 -0.116,-0.034c-0.112,-0.037 -0.228,-0.075 -0.34,-0.094c-0.153,-0.034 -0.314,-0.056 -0.475,-0.056c-2.726,0 -4.944,4.428 -4.944,9.887l0,13.679c2.12,-0.026 4.364,-0.06 6.727,-0.082l0,-22.811c-0.011,0 -0.011,0 -0.011,0z"/>
  <path id="svg_84" fill="#684432" d="m88.452,273.06c-0.004,-0.011 -0.015,-0.022 -0.026,-0.03c-0.112,-0.105 -0.221,-0.202 -0.329,-0.28c-0.019,-0.015 -0.049,-0.03 -0.071,-0.045c-0.105,-0.071 -0.206,-0.116 -0.314,-0.157c-0.022,-0.011 -0.06,-0.03 -0.09,-0.041c-0.131,-0.041 -0.262,-0.067 -0.396,-0.067c-1.963,0 -3.556,4.42 -3.556,9.88l0,12.756c1.574,-0.026 3.298,-0.045 5.134,-0.067l0,-21.532c-0.109,-0.152 -0.225,-0.294 -0.352,-0.417z"/>
  <path id="svg_85" fill="#5B3C2C" d="m80.147,276.093c-0.011,-0.011 -0.022,-0.026 -0.03,-0.037c-0.071,-0.101 -0.142,-0.191 -0.217,-0.277c-0.015,-0.011 -0.03,-0.03 -0.045,-0.052c-0.071,-0.064 -0.135,-0.108 -0.206,-0.153c-0.022,-0.007 -0.041,-0.026 -0.064,-0.034c-0.082,-0.041 -0.176,-0.067 -0.262,-0.067c-1.313,0 -2.375,4.428 -2.375,9.88l0,9.813c1.006,-0.015 2.154,-0.03 3.429,-0.045l0,-18.608c-0.081,-0.155 -0.152,-0.289 -0.23,-0.42z"/>
  <g id="svg_86">
   <path id="svg_87" fill="#3D3027" d="m302.285,263.763c0.045,0.049 0.086,0.101 0.131,0.153c-0.049,-0.056 -0.082,-0.123 -0.131,-0.179l0,0.026zm-15.288,6.833l0,23.189c5.041,0.03 10.149,0.064 15.284,0.101l0,-30.122c-1.619,-1.87 -3.874,-3.051 -6.391,-3.051c-4.906,-0.001 -8.893,4.419 -8.893,9.883z"/>
   <path id="svg_88" fill="#3D3027" d="m328.967,264.859c-1.406,-1.193 -3.13,-1.903 -5.007,-1.903c-4.689,0 -8.496,4.428 -8.496,9.88l0,21.155c4.544,0.037 9.076,0.079 13.571,0.116l-0.068,-29.248z"/>
  </g>
  <path id="svg_89" fill="#774F39" d="m328.967,264.844l0,0.011c0.049,0.049 0.101,0.09 0.15,0.135c-0.053,-0.045 -0.094,-0.101 -0.15,-0.146z"/>
  <g id="svg_90">
   <path id="svg_91" fill="#3D3027" d="m332.403,271.714c-0.015,-0.12 -0.03,-0.236 -0.049,-0.359c-0.03,-0.243 -0.071,-0.494 -0.116,-0.733c-0.026,-0.131 -0.056,-0.262 -0.09,-0.393c-0.052,-0.228 -0.108,-0.449 -0.176,-0.669c-0.037,-0.123 -0.075,-0.251 -0.116,-0.37c-0.079,-0.232 -0.168,-0.453 -0.258,-0.673c-0.049,-0.101 -0.082,-0.206 -0.131,-0.307c-0.146,-0.31 -0.295,-0.621 -0.464,-0.909c-0.015,-0.022 -0.026,-0.037 -0.041,-0.056c-0.161,-0.273 -0.333,-0.535 -0.512,-0.782c-0.067,-0.09 -0.138,-0.172 -0.206,-0.258c-0.138,-0.18 -0.28,-0.352 -0.426,-0.516c-0.079,-0.09 -0.161,-0.172 -0.243,-0.262c-0.15,-0.153 -0.307,-0.295 -0.464,-0.438c-0.049,-0.045 -0.097,-0.086 -0.15,-0.135l0.067,29.247c1.144,0.015 2.285,0.026 3.429,0.03l0,-21.301c0.006,-0.376 -0.024,-0.746 -0.054,-1.116z"/>
   <path id="svg_92" fill="#3D3027" d="m351.456,265.884c0.894,0.262 1.728,0.699 2.487,1.279c-0.759,-0.584 -1.589,-1.014 -2.487,-1.279z"/>
   <path id="svg_93" fill="#3D3027" d="m349.463,265.588c-4.592,0 -8.309,4.42 -8.309,9.884l0,18.754c3.459,0.034 6.87,0.071 10.235,0.108l0.037,-28.454c-0.632,-0.183 -1.29,-0.292 -1.963,-0.292z"/>
   <path id="svg_94" fill="#3D3027" d="m370.21,266.381c-4.035,0 -7.315,4.42 -7.315,9.88l0,18.189c2.689,0.03 5.325,0.06 7.913,0.082l0,-28.118c-0.201,-0.018 -0.392,-0.033 -0.598,-0.033z"/>
   <path id="svg_95" fill="#3D3027" d="m380.292,278.501l0,16.151c1.791,0.019 3.553,0.041 5.269,0.064l0,-26.035c-2.958,0.55 -5.269,4.734 -5.269,9.82z"/>
   <path id="svg_96" fill="#3D3027" d="m394.525,281.272l0,13.552c1.077,0.011 2.132,0.026 3.16,0.045l0,-22.811c-1.847,1.432 -3.16,5.015 -3.16,9.214z"/>
   <path id="svg_97" fill="#3D3027" d="m406.78,294.981c0.673,0.007 1.335,0.019 1.975,0.03l0,-21.401c-1.159,1.63 -1.975,4.869 -1.975,8.713l0,12.658zm1.978,-21.502l0,0.131c0.123,-0.172 0.228,-0.415 0.359,-0.546c-0.127,0.119 -0.243,0.261 -0.359,0.415z"/>
   <path id="svg_98" fill="#3D3027" d="m415.874,285.225l0,9.872c0.453,0.011 0.89,0.019 1.313,0.022l0,-18.739c-0.778,1.624 -1.313,4.971 -1.313,8.845z"/>
  </g>
  <g id="svg_99">
   <path id="svg_100" fill="#774F39" d="m304.614,268.673c0,-0.015 0,-0.026 -0.004,-0.034c-0.108,-0.621 -0.28,-1.219 -0.49,-1.791c-0.004,-0.007 -0.004,-0.015 -0.007,-0.026c-0.434,-1.152 -1.055,-2.199 -1.829,-3.085l0,30.152c0.838,0.004 1.672,0.011 2.502,0.022l0,-23.316c0,-0.661 -0.059,-1.301 -0.172,-1.922z"/>
   <polygon id="svg_101" fill="#774F39" points="351.426,265.876 351.426,265.88 351.456,265.884  "/>
   <path id="svg_102" fill="#774F39" d="m357.649,273.92c-0.007,-0.086 -0.019,-0.165 -0.034,-0.243c-0.071,-0.486 -0.179,-0.954 -0.31,-1.41c-0.026,-0.079 -0.045,-0.157 -0.075,-0.236c-0.15,-0.467 -0.31,-0.92 -0.516,-1.342c-0.011,-0.022 -0.015,-0.041 -0.026,-0.06c-0.209,-0.441 -0.445,-0.856 -0.711,-1.253c-0.011,-0.022 -0.022,-0.045 -0.041,-0.071c-0.266,-0.393 -0.561,-0.763 -0.871,-1.099c-0.034,-0.03 -0.06,-0.064 -0.086,-0.093c-0.322,-0.34 -0.662,-0.662 -1.025,-0.939c-0.004,0 -0.011,-0.004 -0.015,-0.004c-0.759,-0.58 -1.593,-1.013 -2.487,-1.279c-0.011,0 -0.019,-0.007 -0.03,-0.007l-0.037,28.454c2.143,0.011 4.271,0.041 6.372,0.064l0,-18.922c0.004,-0.543 -0.048,-1.048 -0.108,-1.56z"/>
   <path id="svg_103" fill="#774F39" d="m377.491,275.274c-0.011,-0.108 -0.026,-0.221 -0.037,-0.337c-0.019,-0.206 -0.041,-0.415 -0.075,-0.621c-0.019,-0.135 -0.045,-0.254 -0.067,-0.389c-0.034,-0.176 -0.067,-0.359 -0.101,-0.535c-0.03,-0.146 -0.075,-0.273 -0.105,-0.408c-0.041,-0.165 -0.079,-0.322 -0.131,-0.479c-0.041,-0.142 -0.094,-0.28 -0.142,-0.423c-0.052,-0.138 -0.094,-0.277 -0.146,-0.415c-0.064,-0.142 -0.123,-0.292 -0.187,-0.426c-0.052,-0.12 -0.105,-0.247 -0.161,-0.37c-0.071,-0.146 -0.15,-0.284 -0.228,-0.423c-0.052,-0.105 -0.112,-0.217 -0.168,-0.314c-0.086,-0.142 -0.176,-0.284 -0.266,-0.419c-0.06,-0.09 -0.116,-0.179 -0.176,-0.262c-0.097,-0.142 -0.202,-0.28 -0.307,-0.415c-0.06,-0.067 -0.116,-0.142 -0.172,-0.213c-0.116,-0.138 -0.239,-0.262 -0.359,-0.396c-0.052,-0.049 -0.112,-0.108 -0.161,-0.157c-0.131,-0.131 -0.269,-0.251 -0.404,-0.366c-0.056,-0.049 -0.105,-0.09 -0.157,-0.123c-0.146,-0.123 -0.295,-0.239 -0.449,-0.337c-0.045,-0.03 -0.09,-0.06 -0.135,-0.09c-0.165,-0.101 -0.325,-0.202 -0.501,-0.295c-0.037,-0.019 -0.075,-0.034 -0.108,-0.056c-0.183,-0.09 -0.366,-0.168 -0.55,-0.239c-0.026,-0.015 -0.06,-0.022 -0.082,-0.034c-0.198,-0.067 -0.4,-0.138 -0.598,-0.183c-0.022,-0.004 -0.045,-0.011 -0.06,-0.011c-0.217,-0.052 -0.426,-0.09 -0.647,-0.116l0,28.118c2.281,0.03 4.525,0.06 6.72,0.082l0,-18.358c-0.002,-0.332 -0.017,-0.661 -0.04,-0.99z"/>
   <path id="svg_104" fill="#774F39" d="m386.223,268.617c-0.224,0 -0.441,0.026 -0.662,0.064l0,26.035c2.266,0.026 4.465,0.052 6.597,0.079l0,-16.293c0.004,-5.457 -2.659,-9.885 -5.935,-9.885z"/>
  </g>
  <path id="svg_105" fill="#704936" d="m399.465,271.385c-0.157,0 -0.318,0.019 -0.479,0.056c-0.108,0.019 -0.224,0.056 -0.333,0.093c-0.041,0.007 -0.079,0.019 -0.116,0.034c-0.135,0.049 -0.28,0.12 -0.415,0.198c-0.004,0 -0.007,0.007 -0.015,0.007c-0.138,0.082 -0.28,0.179 -0.415,0.284c0,0 0,0 -0.004,0l0,22.811c2.36,0.022 4.603,0.056 6.727,0.082l0,-13.679c-0.003,-5.462 -2.216,-9.886 -4.95,-9.886z"/>
  <path id="svg_106" fill="#684432" d="m410.34,272.439c-0.135,0 -0.266,0.022 -0.404,0.067c-0.022,0.011 -0.056,0.026 -0.082,0.041c-0.112,0.041 -0.209,0.086 -0.314,0.157c-0.019,0.011 -0.045,0.03 -0.067,0.045c-0.112,0.079 -0.221,0.176 -0.329,0.28c-0.004,0.007 -0.019,0.019 -0.026,0.03c-0.127,0.123 -0.239,0.266 -0.359,0.419l0,21.532c1.844,0.019 3.568,0.041 5.142,0.067l0,-12.756c-0.001,-5.462 -1.594,-9.882 -3.561,-9.882z"/>
  <path id="svg_107" fill="#5B3C2C" d="m418.241,275.341c-0.086,0 -0.176,0.022 -0.266,0.067c-0.015,0.007 -0.037,0.022 -0.06,0.034c-0.071,0.045 -0.138,0.09 -0.206,0.161c-0.015,0.011 -0.037,0.03 -0.049,0.049c-0.075,0.075 -0.15,0.168 -0.221,0.273c-0.004,0.007 -0.015,0.026 -0.019,0.041c-0.082,0.12 -0.157,0.258 -0.236,0.411l0,18.739c1.275,0.015 2.416,0.03 3.429,0.045l0,-9.94c0.007,-5.456 -1.055,-9.88 -2.372,-9.88z"/>
  <path id="svg_108" fill="#BC8257" d="m328.51,307.318l-2.393,-10.77l-16.753,-1.197l-14.364,-63.43l-20.347,-2.393l-15.889,-44.258l-0.86,-2.42l4.783,-4.783l0,-15.557l-7.778,-0.598l-7.782,-0.602l-25.085,-58.147c-152.392,4.795 -172.381,43.185 -172.381,43.185l0,122.819c0,0 0.654,2.143 4.899,5.325c-3.762,2.674 -4.899,4.398 -4.899,4.398l0,57.447c0,18.922 91.017,29.92 203.298,29.92c26.891,0 52.545,-0.636 76.037,-1.859l6.686,-45.118l1.2,-10.766l-8.372,-1.196z"/>
  <path id="svg_109" fill="#CB8F5B" d="m328.51,307.318l-2.393,-10.77l-16.753,-1.197l-14.364,-63.43l-20.347,-2.393l-15.889,-44.258l-0.86,-2.42l4.783,-4.783l0,-15.557l-7.778,-0.598l-7.782,-0.602l-15.336,-35.541c0,0 -89.204,4.985 -144.131,19.734c-21.345,4.708 -37.998,15.067 -37.998,15.067l0,108.601c0,0 0.654,2.143 4.899,5.325c-3.762,2.674 -4.899,4.398 -4.899,4.398l0,57.444c0,18.922 91.017,29.92 203.298,29.92c26.891,0 52.545,-0.636 76.037,-1.859l6.686,-45.118l1.2,-10.766l-8.373,-1.197z"/>
  <g id="svg_110">
   <path id="svg_111" fill="#3D3027" d="m238.918,197.872c3.818,1.541 6.563,5.68 6.563,10.557l0,25.601l0.452,0l0,-25.601c0,-4.877 -2.932,-9.012 -7.015,-10.557z"/>
   <path id="svg_112" fill="#3D3027" d="m242.646,206.189c-1.544,-5.845 -6.765,-8.818 -7.012,-8.964c-0.082,0 -0.161,-0.011 -0.247,-0.011c-5.823,0 -10.549,5.022 -10.549,11.219l0,25.855c6.35,-0.127 12.789,-0.206 19.315,-0.247c-0.437,-14.15 -0.954,-25.75 -1.507,-27.852z"/>
   <path id="svg_113" fill="#3D3027" d="m200.83,199.005c-2.857,0 -5.419,1.342 -7.255,3.463l0,32.8c5.68,-0.251 11.469,-0.464 17.352,-0.639l0,-24.401c0.004,-6.197 -4.525,-11.223 -10.097,-11.223zm-7.423,3.669c0.056,-0.071 0.112,-0.138 0.172,-0.206l0,-0.034c-0.067,0.075 -0.112,0.165 -0.172,0.24z"/>
   <path id="svg_114" fill="#3D3027" d="m168.965,201.548c-2.124,0 -4.084,0.811 -5.68,2.169l-0.075,33.32c5.019,-0.37 10.16,-0.703 15.407,-1.01l0,-23.256c0,-6.201 -4.323,-11.223 -9.652,-11.223z"/>
  </g>
  <g id="svg_115">
   <path id="svg_116" fill="#774F39" d="m163.109,203.867c0.06,-0.052 0.116,-0.105 0.172,-0.153l0,-0.011c-0.056,0.051 -0.108,0.111 -0.172,0.164z"/>
   <path id="svg_117" fill="#774F39" d="m163.109,203.867c-0.18,0.157 -0.352,0.325 -0.52,0.501c-0.093,0.093 -0.191,0.191 -0.28,0.292c-0.168,0.191 -0.329,0.385 -0.49,0.587c-0.075,0.094 -0.157,0.187 -0.232,0.288c-0.206,0.284 -0.4,0.583 -0.58,0.886c-0.015,0.022 -0.034,0.045 -0.045,0.071c-0.187,0.329 -0.363,0.669 -0.527,1.025c-0.049,0.116 -0.101,0.236 -0.15,0.348c-0.105,0.254 -0.198,0.497 -0.288,0.763c-0.049,0.135 -0.094,0.284 -0.135,0.426c-0.075,0.247 -0.142,0.501 -0.202,0.755c-0.037,0.15 -0.075,0.295 -0.097,0.449c-0.06,0.273 -0.101,0.553 -0.131,0.834c-0.022,0.131 -0.045,0.269 -0.056,0.404c-0.041,0.419 -0.067,0.838 -0.067,1.268l0,24.558c1.286,-0.101 2.584,-0.202 3.893,-0.295l0.075,-33.32c-0.052,0.059 -0.108,0.107 -0.168,0.16z"/>
  </g>
  <g id="svg_118">
   <path id="svg_119" fill="#3D3027" d="m140.021,204.54c-0.774,0 -1.518,0.127 -2.24,0.329l0.052,34.404c3.781,-0.4 7.655,-0.774 11.608,-1.126l0,-22.393c0,-6.188 -4.218,-11.214 -9.42,-11.214z"/>
   <path id="svg_120" fill="#3D3027" d="m116.454,207.834c-0.228,0 -0.449,0.019 -0.669,0.045l0,34.112c2.913,-0.415 5.905,-0.819 8.975,-1.208l0,-21.731c0.003,-6.192 -3.714,-11.218 -8.306,-11.218z"/>
   <path id="svg_121" fill="#3D3027" d="m99.031,211.645l0,33.088c1.945,-0.363 3.945,-0.714 5.983,-1.055l0,-20.882c0.001,-5.777 -2.613,-10.527 -5.983,-11.151z"/>
   <path id="svg_122" fill="#3D3027" d="m85.27,216.675l0,30.967c1.17,-0.28 2.367,-0.557 3.586,-0.838l0,-19.674c0,-4.771 -1.492,-8.832 -3.586,-10.455z"/>
   <path id="svg_123" fill="#3D3027" d="m72.305,220.799c0.138,0.142 0.269,0.329 0.4,0.512l0,-0.03c-0.131,-0.179 -0.266,-0.336 -0.4,-0.482zm0.4,0.513l0,29.823c0.729,-0.236 1.477,-0.467 2.244,-0.703l0,-19.113c0,-4.39 -0.917,-8.167 -2.244,-10.007z"/>
   <path id="svg_124" fill="#3D3027" d="m63.128,225.321l0,29.464c0.486,-0.228 0.987,-0.441 1.496,-0.654l0,-18.776c0,-4.395 -0.61,-8.191 -1.496,-10.034z"/>
  </g>
  <g id="svg_125">
   <path id="svg_126" fill="#513E31" d="m235.608,197.21c0,0 0.019,0.007 0.026,0.011c1.152,0.03 2.255,0.262 3.283,0.651c-1.043,-0.422 -2.142,-0.662 -3.309,-0.662z"/>
   <path id="svg_127" fill="#513E31" d="m238.918,197.872c-1.028,-0.389 -2.132,-0.621 -3.283,-0.651c0.243,0.146 5.467,3.119 7.012,8.964c0.553,2.102 1.073,13.702 1.507,27.852c0.441,0 0.89,0 1.331,-0.004l0,-25.601c-0.004,-4.88 -2.746,-9.015 -6.567,-10.56z"/>
  </g>
  <g id="svg_128">
   <path id="svg_129" fill="#774F39" d="m191.5,205.946c-0.004,0.007 -0.011,0.019 -0.011,0.03c-0.243,0.651 -0.43,1.324 -0.557,2.027c-0.004,0.011 -0.004,0.026 -0.004,0.037c-0.127,0.707 -0.194,1.436 -0.194,2.184l0,25.175c0.942,-0.049 1.888,-0.09 2.842,-0.135l0,-32.833c-0.879,1.013 -1.586,2.198 -2.076,3.515z"/>
   <path id="svg_130" fill="#774F39" d="m137.781,204.873c-0.007,0.004 -0.019,0.011 -0.03,0.011c-1.021,0.299 -1.967,0.789 -2.823,1.451c0,0 -0.004,0.004 -0.011,0.007c-0.411,0.314 -0.8,0.673 -1.17,1.062c-0.034,0.041 -0.067,0.075 -0.097,0.108c-0.359,0.385 -0.688,0.804 -0.991,1.249c-0.015,0.03 -0.03,0.056 -0.049,0.079c-0.299,0.452 -0.565,0.924 -0.8,1.425c-0.007,0.019 -0.019,0.037 -0.03,0.067c-0.232,0.479 -0.419,0.995 -0.583,1.522c-0.026,0.086 -0.06,0.176 -0.082,0.266c-0.146,0.52 -0.269,1.047 -0.355,1.601c-0.015,0.09 -0.026,0.183 -0.034,0.277c-0.079,0.576 -0.127,1.163 -0.127,1.758l0,24.311c2.367,-0.269 4.79,-0.538 7.236,-0.797l-0.054,-34.397z"/>
   <path id="svg_131" fill="#774F39" d="m115.781,207.879c-0.247,0.026 -0.494,0.075 -0.74,0.127c-0.022,0.004 -0.041,0.011 -0.064,0.015c-0.224,0.056 -0.456,0.127 -0.681,0.209c-0.03,0.015 -0.06,0.019 -0.097,0.037c-0.209,0.082 -0.419,0.18 -0.621,0.28c-0.041,0.019 -0.086,0.041 -0.131,0.064c-0.194,0.097 -0.385,0.217 -0.565,0.329c-0.056,0.034 -0.108,0.067 -0.153,0.105c-0.176,0.12 -0.348,0.243 -0.512,0.381c-0.064,0.045 -0.123,0.09 -0.179,0.142c-0.157,0.135 -0.31,0.273 -0.456,0.419c-0.064,0.064 -0.127,0.127 -0.183,0.187c-0.146,0.142 -0.273,0.292 -0.408,0.445c-0.067,0.079 -0.131,0.161 -0.194,0.239c-0.12,0.157 -0.236,0.31 -0.352,0.467c-0.067,0.097 -0.131,0.194 -0.202,0.295c-0.097,0.157 -0.198,0.314 -0.299,0.486c-0.071,0.116 -0.131,0.228 -0.194,0.348c-0.09,0.168 -0.168,0.322 -0.251,0.49c-0.067,0.131 -0.127,0.273 -0.187,0.415c-0.071,0.157 -0.142,0.314 -0.206,0.482c-0.056,0.153 -0.108,0.31 -0.165,0.471c-0.052,0.157 -0.112,0.318 -0.165,0.482c-0.052,0.172 -0.097,0.355 -0.146,0.535c-0.037,0.153 -0.082,0.303 -0.12,0.471c-0.041,0.194 -0.082,0.404 -0.116,0.606c-0.026,0.15 -0.056,0.288 -0.079,0.441c-0.034,0.232 -0.052,0.467 -0.079,0.707c-0.011,0.127 -0.034,0.247 -0.041,0.381c-0.026,0.366 -0.045,0.737 -0.045,1.114l0,24.102c2.483,-0.396 5.022,-0.789 7.636,-1.167l0,-34.112l-0.007,0l0,0.007l0.002,0z"/>
   <path id="svg_132" fill="#774F39" d="m98.283,211.57c-3.717,0 -6.731,5.026 -6.731,11.222l0,23.432c2.412,-0.516 4.899,-1.013 7.479,-1.496l0,-33.088c-0.246,-0.036 -0.497,-0.07 -0.748,-0.07z"/>
  </g>
  <path id="svg_133" fill="#704936" d="m85.262,216.671c-0.153,-0.116 -0.31,-0.228 -0.467,-0.314c-0.004,-0.004 -0.007,-0.004 -0.015,-0.007c-0.157,-0.09 -0.318,-0.161 -0.479,-0.228c-0.041,-0.019 -0.082,-0.026 -0.127,-0.041c-0.127,-0.041 -0.251,-0.082 -0.385,-0.108c-0.179,-0.034 -0.355,-0.049 -0.542,-0.049c-3.096,0 -5.609,5.019 -5.609,11.219l0,22.508c2.408,-0.688 4.955,-1.354 7.636,-1.997l0,-30.967c-0.008,-0.012 -0.008,-0.016 -0.012,-0.016z"/>
  <path id="svg_134" fill="#684432" d="m72.305,220.799c-0.015,-0.011 -0.022,-0.022 -0.041,-0.034c-0.116,-0.123 -0.243,-0.228 -0.37,-0.314c-0.026,-0.015 -0.052,-0.037 -0.079,-0.06c-0.116,-0.071 -0.232,-0.123 -0.352,-0.168c-0.03,-0.019 -0.064,-0.034 -0.097,-0.045c-0.15,-0.049 -0.303,-0.079 -0.46,-0.079c-2.233,0 -4.039,5.03 -4.039,11.222l0,21.891c1.817,-0.711 3.762,-1.402 5.841,-2.075l0,-29.853c-0.134,-0.182 -0.269,-0.339 -0.403,-0.485z"/>
  <path id="svg_135" fill="#5B3C2C" d="m62.866,224.846c-0.011,-0.011 -0.026,-0.03 -0.034,-0.041c-0.079,-0.12 -0.157,-0.224 -0.239,-0.31c-0.022,-0.022 -0.037,-0.045 -0.056,-0.06c-0.079,-0.075 -0.153,-0.131 -0.239,-0.179c-0.019,-0.011 -0.037,-0.034 -0.064,-0.041c-0.097,-0.049 -0.198,-0.071 -0.303,-0.071c-1.485,0 -2.696,5.019 -2.696,11.215l0,21.372c1.193,-0.662 2.494,-1.309 3.893,-1.945l0,-29.464c-0.086,-0.177 -0.176,-0.334 -0.262,-0.476z"/>
  <g filter="url(#svg_136_blur)" id="svg_136">
   <path id="svg_137" fill="#B5794D" d="m221.435,101.743c-97.311,3.545 -171.774,23.006 -171.774,42.508l0,7.786c0,-19.723 76.156,-39.408 175.079,-42.624l-3.305,-7.67z"/>
   <path id="svg_138" fill="#B5794D" d="m258.229,183.766c-1.75,-0.011 -3.504,-0.015 -5.265,-0.015c-112.281,0 -203.298,21.518 -203.298,43.084l0,7.778c0,-21.562 91.017,-43.084 203.298,-43.084c2.704,0 5.389,0.015 8.07,0.037l-2.805,-7.8z"/>
   <path id="svg_139" fill="#B5794D" d="m296.78,239.77c-14.117,-0.441 -28.769,-0.669 -43.817,-0.669c-112.281,0 -203.298,12.546 -203.298,34.105l0,11.376c0,-21.566 91.017,-34.109 203.298,-34.109c15.968,0 31.506,0.251 46.404,0.752l-2.587,-11.455z"/>
   <path id="svg_140" fill="#B5794D" d="m329,307.385c-26.121,-0.209 -52.425,-0.363 -74.691,-0.363c-76.594,0 -201.054,1.791 -201.054,1.791l0,2.992l283.265,0l0.37,-3.291l-7.89,-1.129z"/>
  </g>
  <path id="svg_141" fill="#A56F4A" d="m53.255,311.806c0,0 124.46,5.684 201.054,5.684c24.266,0 53.334,-0.568 81.725,-1.35l0.482,-4.334l-283.261,0z"/>
  <g id="svg_142">
   <path id="svg_143" fill="#3D3027" d="m272.413,322.576c-6.196,0 -11.219,5.019 -11.219,11.219l0,25.13l14.169,0c2.771,-0.037 5.531,-0.079 8.276,-0.131l0,-24.999c-0.004,-6.201 -5.033,-11.219 -11.226,-11.219z"/>
   <path id="svg_144" fill="#3D3027" d="m275.36,358.924l8.276,0l0,-0.131c-2.745,0.056 -5.509,0.098 -8.276,0.131z"/>
   <path id="svg_145" fill="#3D3027" d="m235.387,322.576c-5.823,0 -10.549,5.019 -10.549,11.219l0,25.059c1.716,0.026 3.437,0.052 5.161,0.075l15.934,0l0,-25.13c0,-6.205 -4.723,-11.223 -10.546,-11.223z"/>
   <path id="svg_146" fill="#3D3027" d="m200.83,322.576c-5.579,0 -10.097,5.019 -10.097,11.219l0,23.997c6.574,0.299 13.313,0.546 20.194,0.744l0,-24.741c0.004,-6.201 -4.525,-11.219 -10.097,-11.219z"/>
   <path id="svg_147" fill="#3D3027" d="m168.965,321.229c-5.325,0 -9.644,5.018 -9.644,11.219l0,23.634c6.249,0.434 12.685,0.819 19.296,1.159l0,-24.793c0,-6.2 -4.323,-11.219 -9.652,-11.219z"/>
  </g>
  <path id="svg_148" fill="#774F39" d="m159.317,332.448l0,23.634c1.522,0.105 2.195,0.213 3.743,0.31l0.221,-33.009c-2.405,2.035 -3.964,5.337 -3.964,9.065z"/>
  <g id="svg_149">
   <path id="svg_150" fill="#3D3027" d="m140.021,320.332c-5.205,0 -9.427,5.018 -9.427,11.219l0,22.209c6.021,0.628 12.318,1.208 18.844,1.728l0,-23.937c0.003,-6.201 -4.215,-11.219 -9.417,-11.219z"/>
   <path id="svg_151" fill="#3D3027" d="m116.454,319.434c-4.588,0 -8.302,5.019 -8.302,11.215l0,20.411c5.258,0.744 10.796,1.44 16.611,2.079l0,-22.49c0,-6.192 -3.717,-11.215 -8.309,-11.215z"/>
   <path id="svg_152" fill="#3D3027" d="m98.283,318.986c-3.717,0 -6.731,5.022 -6.731,11.219l0,18.163c4.218,0.789 8.709,1.537 13.462,2.236l0,-20.399c0.001,-6.197 -3.013,-11.219 -6.731,-11.219z"/>
   <path id="svg_153" fill="#3D3027" d="m83.247,316.742c-3.096,0 -5.609,5.015 -5.609,11.219l0,17.411c3.459,0.86 7.206,1.694 11.219,2.479l0,-19.891c-0.001,-6.203 -2.506,-11.218 -5.61,-11.218z"/>
   <path id="svg_154" fill="#3D3027" d="m70.902,315.392c-2.233,0 -4.039,5.022 -4.039,11.219l0,15.628c2.457,0.841 5.149,1.653 8.081,2.434l0,-18.062c0.005,-6.193 -1.809,-11.219 -4.042,-11.219z"/>
   <path id="svg_155" fill="#3D3027" d="m61.931,314.947c-1.485,0 -2.696,5.022 -2.696,11.219l0,12.988c1.604,0.778 3.41,1.544 5.389,2.285l0,-15.272c0,-6.198 -1.208,-11.22 -2.693,-11.22z"/>
  </g>
  <g id="svg_156">
   <path id="svg_157" fill="#513E31" d="m272.413,322.576c0,0 4.633,4.192 6.432,10.172c1.795,5.987 4.79,26.181 4.79,26.181l0,-25.13c0,-6.205 -5.029,-11.223 -11.222,-11.223z"/>
   <path id="svg_158" fill="#513E31" d="m235.608,322.576c0,0 5.452,2.992 7.034,8.975c1.578,5.987 2.838,27.377 2.838,27.377l0,-25.13c0.001,-6.204 -4.416,-11.222 -9.872,-11.222z"/>
  </g>
  <g id="svg_159">
   <path id="svg_160" fill="#774F39" d="m190.733,333.794l0,23.997c0.931,0.037 1.896,0.075 2.842,0.112l0,-31.902c-1.761,2.019 -2.842,4.764 -2.842,7.793z"/>
   <path id="svg_161" fill="#774F39" d="m137.781,320.657c-4.121,1.197 -7.184,5.609 -7.184,10.893l0,22.209c2.247,0.236 5,0.464 7.33,0.684l-0.146,-33.786z"/>
   <path id="svg_162" fill="#774F39" d="m108.152,330.649l0,20.411c2.479,0.355 5.022,0.688 7.636,1.017l0,-32.602c-4.274,0.472 -7.636,5.288 -7.636,11.174z"/>
   <path id="svg_163" fill="#774F39" d="m98.283,318.986c-3.717,0 -6.731,5.022 -6.731,11.219l0,18.163c2.401,0.449 4.91,0.879 7.479,1.305l0,-30.613c-0.246,-0.044 -0.497,-0.074 -0.748,-0.074z"/>
  </g>
  <path id="svg_164" fill="#704936" d="m83.247,316.742c-3.096,0 -5.609,5.015 -5.609,11.219l0,17.411c2.405,0.602 4.955,1.178 7.636,1.743l0,-29.614c-0.632,-0.482 -1.309,-0.759 -2.027,-0.759z"/>
  <path id="svg_165" fill="#684432" d="m70.902,315.392c-2.233,0 -4.039,5.022 -4.039,11.219l0,15.628c1.806,0.613 3.781,1.212 5.841,1.799l0,-27.463c-0.545,-0.749 -1.151,-1.183 -1.802,-1.183z"/>
  <path id="svg_166" fill="#5B3C2C" d="m61.931,314.947c-1.485,0 -2.696,5.022 -2.696,11.219l0,12.988c1.185,0.572 2.506,1.133 3.893,1.69l0,-24.707c-0.356,-0.756 -0.767,-1.19 -1.197,-1.19z"/>
  <g id="svg_167">
   <path id="svg_168" fill="#3D3027" d="m224.991,358.797l0,0.131l8.268,0c-2.77,-0.037 -5.534,-0.079 -8.268,-0.131z"/>
   <path id="svg_169" fill="#3D3027" d="m307.793,322.576c-5.579,0 -10.097,5.019 -10.097,11.219l0,24.745c6.881,-0.198 13.612,-0.449 20.194,-0.744l0,-24.001c0,-6.201 -4.529,-11.219 -10.097,-11.219z"/>
  </g>
  <path id="svg_170" fill="#774F39" d="m315.044,326.005l0,31.902c0.946,-0.041 1.903,-0.075 2.846,-0.112l0,-24.001c0,-3.029 -1.088,-5.774 -2.846,-7.789z"/>
  <g id="svg_171">
   <path id="svg_172" fill="#3D3027" d="m278.845,270.218c-1.799,-5.987 -6.432,-10.175 -6.432,-10.175c-6.196,0 -11.219,5.022 -11.219,11.219l0,27.983c6.383,0.011 13.044,0.026 19.891,0.06c-0.778,-14.675 -1.589,-26.907 -2.24,-29.087z"/>
   <path id="svg_173" fill="#3D3027" d="m242.646,269.021c-1.544,-5.845 -6.765,-8.825 -7.012,-8.964c-0.082,0 -0.161,-0.015 -0.247,-0.015c-5.823,0 -10.549,5.022 -10.549,11.219l0,28.051c6.653,-0.03 13.141,-0.052 19.382,-0.064c-0.445,-15.216 -0.987,-28.009 -1.574,-30.227z"/>
   <path id="svg_174" fill="#3D3027" d="m238.918,260.701c3.818,1.548 6.563,5.684 6.563,10.561l0,27.987l0.452,0l0,-27.987c0,-4.877 -2.932,-9.013 -7.015,-10.561z"/>
   <path id="svg_175" fill="#3D3027" d="m200.83,261.837c-2.857,0 -5.419,1.339 -7.255,3.459l0,34.202c5.826,-0.045 11.63,-0.079 17.352,-0.112l0,-26.326c0.004,-6.197 -4.525,-11.223 -10.097,-11.223zm-7.404,3.639c0.052,-0.06 0.101,-0.12 0.153,-0.18l0,-0.03c-0.06,0.068 -0.097,0.147 -0.153,0.21z"/>
   <path id="svg_176" fill="#3D3027" d="m168.965,264.377c-2.124,0 -4.084,0.815 -5.68,2.169l-0.075,33.2c5.101,-0.045 10.25,-0.086 15.407,-0.131l0,-24.016c0,-6.196 -4.323,-11.222 -9.652,-11.222z"/>
  </g>
  <g id="svg_177">
   <path id="svg_178" fill="#774F39" d="m163.109,266.695c0.06,-0.045 0.116,-0.101 0.172,-0.15l0,-0.015c-0.056,0.053 -0.108,0.113 -0.172,0.165z"/>
   <path id="svg_179" fill="#774F39" d="m163.109,266.695c-0.18,0.161 -0.352,0.333 -0.52,0.505c-0.093,0.093 -0.191,0.198 -0.28,0.295c-0.168,0.183 -0.329,0.385 -0.49,0.587c-0.075,0.093 -0.157,0.191 -0.232,0.288c-0.206,0.284 -0.4,0.576 -0.58,0.89c-0.015,0.019 -0.034,0.041 -0.045,0.067c-0.187,0.325 -0.363,0.669 -0.527,1.028c-0.049,0.108 -0.101,0.232 -0.15,0.348c-0.105,0.243 -0.198,0.494 -0.288,0.759c-0.049,0.135 -0.094,0.28 -0.135,0.423c-0.075,0.247 -0.142,0.497 -0.202,0.759c-0.037,0.146 -0.075,0.292 -0.097,0.445c-0.06,0.273 -0.101,0.553 -0.131,0.834c-0.022,0.131 -0.045,0.266 -0.056,0.396c-0.041,0.426 -0.067,0.849 -0.067,1.279l0,24.184c1.29,-0.011 2.588,-0.026 3.893,-0.037l0.075,-33.2c-0.052,0.049 -0.108,0.105 -0.168,0.15z"/>
  </g>
  <g id="svg_180">
   <path id="svg_181" fill="#3D3027" d="m140.021,267.376c-0.774,0 -1.518,0.123 -2.24,0.325l0.052,32.295c3.818,-0.041 7.692,-0.075 11.608,-0.116l0,-21.289c0,-6.193 -4.218,-11.215 -9.42,-11.215z"/>
   <path id="svg_182" fill="#3D3027" d="m134.928,269.156c0.856,-0.651 1.802,-1.144 2.823,-1.443c-1.021,0.299 -1.967,0.792 -2.823,1.443z"/>
   <path id="svg_183" fill="#3D3027" d="m116.454,268.27c-0.228,0 -0.449,0.019 -0.669,0.049l0,31.925c2.928,-0.03 5.923,-0.067 8.975,-0.101l0,-20.65c0.003,-6.197 -3.714,-11.223 -8.306,-11.223z"/>
   <path id="svg_184" fill="#3D3027" d="m99.031,270.884l0,29.55c1.952,-0.019 3.945,-0.049 5.983,-0.071l0,-18.335c0.001,-5.767 -2.613,-10.516 -5.983,-11.144z"/>
   <path id="svg_185" fill="#3D3027" d="m85.27,274.72l0,25.889c1.17,-0.015 2.367,-0.03 3.586,-0.045l0,-15.384c0,-4.776 -1.492,-8.84 -3.586,-10.46z"/>
   <path id="svg_186" fill="#3D3027" d="m72.305,275.857c0.138,0.142 0.269,0.329 0.4,0.512l0,-0.034c-0.131,-0.179 -0.266,-0.336 -0.4,-0.478zm0.4,0.512l0,24.397c0.729,-0.011 1.477,-0.019 2.244,-0.026l0,-14.367c0,-4.39 -0.917,-8.164 -2.244,-10.004z"/>
   <path id="svg_187" fill="#3D3027" d="m63.128,279.78l0,21.117c0.482,-0.007 0.98,-0.011 1.496,-0.019l0,-11.065c0,-4.398 -0.61,-8.193 -1.496,-10.033z"/>
  </g>
  <g id="svg_188">
   <path id="svg_189" fill="#513E31" d="m272.413,260.042c0,0 4.633,4.188 6.432,10.175c0.651,2.18 1.466,14.412 2.236,29.086c0.845,0 1.694,0.004 2.554,0.007l0,-28.051c0,-6.194 -5.029,-11.217 -11.222,-11.217z"/>
   <path id="svg_190" fill="#513E31" d="m235.608,260.042c0,0 0.019,0.011 0.026,0.015c1.152,0.026 2.255,0.251 3.283,0.643c-1.043,-0.418 -2.142,-0.658 -3.309,-0.658z"/>
   <path id="svg_191" fill="#513E31" d="m238.918,260.701c-1.028,-0.393 -2.132,-0.617 -3.283,-0.643c0.243,0.138 5.467,3.119 7.012,8.964c0.587,2.218 1.129,15.014 1.574,30.227l1.264,0l0,-27.987c-0.004,-4.877 -2.746,-9.013 -6.567,-10.561z"/>
  </g>
  <g id="svg_192">
   <path id="svg_193" fill="#774F39" d="m191.5,268.774c-0.004,0.007 -0.011,0.019 -0.011,0.03c-0.243,0.647 -0.43,1.331 -0.557,2.034c-0.004,0.011 -0.004,0.022 -0.004,0.034c-0.127,0.711 -0.194,1.44 -0.194,2.184l0,26.457c0.942,-0.004 1.888,-0.007 2.842,-0.019l0,-34.232c-0.879,1.014 -1.586,2.2 -2.076,3.512z"/>
   <polygon id="svg_194" fill="#774F39" points="137.751,267.712 137.781,267.701 137.781,267.697  "/>
   <path id="svg_195" fill="#774F39" d="m137.781,267.701c-0.007,0.004 -0.019,0.004 -0.03,0.007c-1.021,0.303 -1.967,0.793 -2.823,1.443c0,0.004 -0.004,0.004 -0.011,0.011c-0.411,0.318 -0.8,0.677 -1.17,1.066c-0.034,0.037 -0.067,0.075 -0.097,0.108c-0.359,0.389 -0.688,0.8 -0.991,1.253c-0.015,0.022 -0.03,0.052 -0.049,0.079c-0.299,0.445 -0.565,0.924 -0.8,1.421c-0.007,0.019 -0.019,0.041 -0.03,0.067c-0.232,0.486 -0.419,0.998 -0.583,1.522c-0.026,0.09 -0.06,0.18 -0.082,0.266c-0.146,0.524 -0.269,1.055 -0.355,1.597c-0.015,0.097 -0.026,0.191 -0.034,0.288c-0.079,0.572 -0.127,1.159 -0.127,1.758l0,21.48c2.382,-0.022 4.798,-0.045 7.236,-0.075l-0.054,-32.291z"/>
   <path id="svg_196" fill="#774F39" d="m115.781,268.318c-0.247,0.026 -0.494,0.075 -0.74,0.131c-0.022,0 -0.041,0.004 -0.064,0.011c-0.224,0.052 -0.456,0.127 -0.681,0.209c-0.03,0.011 -0.06,0.019 -0.097,0.03c-0.209,0.079 -0.419,0.176 -0.621,0.28c-0.041,0.019 -0.086,0.034 -0.131,0.064c-0.194,0.097 -0.385,0.217 -0.565,0.337c-0.056,0.03 -0.108,0.064 -0.153,0.097c-0.176,0.116 -0.348,0.247 -0.512,0.378c-0.064,0.049 -0.123,0.097 -0.179,0.142c-0.157,0.131 -0.31,0.273 -0.456,0.419c-0.064,0.064 -0.127,0.123 -0.183,0.187c-0.146,0.146 -0.273,0.288 -0.408,0.449c-0.067,0.079 -0.131,0.157 -0.194,0.239c-0.12,0.153 -0.236,0.307 -0.352,0.467c-0.067,0.094 -0.131,0.194 -0.202,0.295c-0.097,0.157 -0.198,0.318 -0.299,0.482c-0.071,0.116 -0.131,0.236 -0.194,0.352c-0.09,0.165 -0.168,0.318 -0.251,0.486c-0.067,0.135 -0.127,0.277 -0.187,0.419c-0.071,0.157 -0.142,0.318 -0.206,0.482c-0.056,0.153 -0.108,0.31 -0.165,0.471c-0.052,0.157 -0.112,0.314 -0.165,0.482c-0.052,0.172 -0.097,0.352 -0.146,0.535c-0.037,0.153 -0.082,0.31 -0.12,0.467c-0.041,0.202 -0.082,0.404 -0.116,0.61c-0.026,0.15 -0.056,0.288 -0.079,0.438c-0.034,0.236 -0.052,0.471 -0.079,0.711c-0.011,0.127 -0.034,0.243 -0.041,0.378c-0.026,0.366 -0.045,0.74 -0.045,1.118l0,20.837c2.494,-0.026 5.033,-0.056 7.636,-0.082l0,-31.925l-0.007,0l0,0.004l0.002,0z"/>
   <path id="svg_197" fill="#774F39" d="m98.283,270.812c-3.717,0 -6.731,5.026 -6.731,11.219l0,18.496c2.412,-0.03 4.906,-0.06 7.479,-0.09l0,-29.55c-0.246,-0.041 -0.497,-0.075 -0.748,-0.075z"/>
  </g>
  <path id="svg_198" fill="#704936" d="m85.262,274.72c-0.153,-0.123 -0.31,-0.232 -0.467,-0.322c-0.004,-0.004 -0.007,-0.004 -0.015,-0.011c-0.157,-0.086 -0.318,-0.161 -0.479,-0.224c-0.041,-0.015 -0.082,-0.026 -0.127,-0.045c-0.127,-0.041 -0.251,-0.082 -0.385,-0.108c-0.179,-0.037 -0.355,-0.056 -0.542,-0.056c-3.096,0 -5.609,5.026 -5.609,11.222l0,15.527c2.405,-0.03 4.951,-0.064 7.636,-0.094l0,-25.889c-0.008,0 -0.008,0 -0.012,0z"/>
  <path id="svg_199" fill="#684432" d="m72.305,275.857c-0.015,-0.011 -0.022,-0.03 -0.041,-0.037c-0.116,-0.131 -0.243,-0.228 -0.37,-0.314c-0.026,-0.019 -0.052,-0.045 -0.079,-0.06c-0.116,-0.071 -0.232,-0.131 -0.352,-0.176c-0.03,-0.011 -0.064,-0.03 -0.097,-0.041c-0.15,-0.049 -0.303,-0.075 -0.46,-0.075c-2.233,0 -4.039,5.018 -4.039,11.219l0,14.472c1.791,-0.022 3.743,-0.052 5.841,-0.079l0,-24.431c-0.134,-0.179 -0.269,-0.336 -0.403,-0.478z"/>
  <path id="svg_200" fill="#5B3C2C" d="m62.866,279.301c-0.011,-0.015 -0.026,-0.03 -0.034,-0.045c-0.079,-0.116 -0.157,-0.221 -0.239,-0.307c-0.022,-0.019 -0.037,-0.041 -0.056,-0.064c-0.079,-0.071 -0.153,-0.131 -0.239,-0.172c-0.019,-0.015 -0.037,-0.037 -0.064,-0.049c-0.097,-0.049 -0.198,-0.075 -0.303,-0.075c-1.485,0 -2.696,5.026 -2.696,11.219l0,11.14c1.152,-0.015 2.449,-0.037 3.893,-0.056l0,-21.117c-0.086,-0.175 -0.176,-0.332 -0.262,-0.474z"/>
  <path id="svg_201" fill="#3D3027" d="m280.745,230.242l-6.092,-0.718l-10.347,-28.828c-1.926,2.008 -3.115,4.734 -3.115,7.737l0,25.609c6.679,0.041 13.276,0.116 19.775,0.243c-0.075,-1.377 -0.146,-2.723 -0.221,-4.043z"/>
  <path id="svg_202" fill="#513E31" d="m280.745,230.242c0.075,1.32 0.146,2.663 0.221,4.039c0.89,0.019 1.784,0.034 2.67,0.052l0,-3.747l-2.891,-0.344z"/>
  <g id="svg_203">
   <path id="svg_204" fill="#3D3027" d="m330.002,332.448l0,24.793l0.105,0l5.112,-34.748c-3.092,1.866 -5.217,5.621 -5.217,9.955z"/>
   <path id="svg_205" fill="#3D3027" d="m309.364,295.348l-7.165,-31.629c-2.715,2.008 -4.502,5.441 -4.502,9.341l0,26.327c5.722,0.034 11.518,0.071 17.348,0.112l0,-3.743l-5.681,-0.408z"/>
  </g>
  <path id="svg_206" fill="#774F39" d="m315.044,295.755l0,3.743c0.95,0.011 1.896,0.015 2.846,0.019l0,-3.56l-2.846,-0.202z"/>
  <path id="svg_207" fill="#B5794D" d="m252.963,366.258c-112.281,0 -203.298,-10.998 -203.298,-29.92l0,2.838c0,18.918 91.017,34.262 203.298,34.262c26.51,0 51.827,-0.86 75.057,-2.416l0.168,-1.141l0.815,-5.486c-23.495,1.227 -49.148,1.863 -76.04,1.863z"/>
  <polygon id="svg_208" fill="#CB8F5B" points="326.117,296.544 326.872,299.947 328.51,307.318 "/>
  <g id="svg_209"/>
  <g id="svg_210"/>
  <g id="svg_211"/>
  <g id="svg_212"/>
  <g id="svg_213"/>
  <g id="svg_214"/>
  <g id="svg_215"/>
  <g id="svg_216"/>
  <g id="svg_217"/>
  <g id="svg_218"/>
  <g id="svg_219"/>
  <g id="svg_220"/>
  <g id="svg_221"/>
  <g id="svg_222"/>
  <g id="svg_223"/>
  <text font-weight="bold" xml:space="preserve" text-anchor="start" font-family="'Palatino Linotype', 'Book Antiqua', Palatino, serif" font-size="92" id="svg_224" y="116.677" x="86.327" fill-opacity="null" stroke-opacity="null" stroke-width="0" stroke="null" fill="#000000">HOME</text>
 </g>
</svg>