<svg width="473.654" height="473.654" xmlns="http://www.w3.org/2000/svg">
 <defs>
  <filter id="svg_5_blur">
   <feGaussianBlur stdDeviation="0.9" in="SourceGraphic"/>
  </filter>
  <filter height="200%" width="200%" y="-50%" x="-50%" id="svg_40_blur">
   <feGaussianBlur stdDeviation="8.6" in="SourceGraphic"/>
  </filter>
  <filter height="200%" width="200%" y="-50%" x="-50%" id="svg_45_blur">
   <feGaussianBlur stdDeviation="6.3" in="SourceGraphic"/>
  </filter>
  <filter id="svg_6_blur">
   <feGaussianBlur stdDeviation="1.6" in="SourceGraphic"/>
  </filter>
  <filter id="svg_46_blur">
   <feGaussianBlur stdDeviation="1.1" in="SourceGraphic"/>
  </filter>
  <filter id="svg_41_blur">
   <feGaussianBlur stdDeviation="1.7" in="SourceGraphic"/>
  </filter>
  <filter id="svg_33_blur">
   <feGaussianBlur stdDeviation="1.4" in="SourceGraphic"/>
  </filter>
  <filter height="200%" width="200%" y="-50%" x="-50%" id="svg_18_blur">
   <feGaussianBlur stdDeviation="3.4" in="SourceGraphic"/>
  </filter>
  <filter height="200%" width="200%" y="-50%" x="-50%" id="svg_27_blur">
   <feGaussianBlur stdDeviation="4" in="SourceGraphic"/>
  </filter>
 </defs>
 <g>
  <title>background</title>
  <rect fill="none" id="canvas_background" height="602" width="802" y="-1" x="-1"/>
 </g>
 <g>
  <title>Layer 1</title>
  <circle id="svg_1" fill="#B9E8EA" r="236.827" cy="236.827" cx="236.827"/>
  <g id="svg_2">
   <rect id="svg_3" fill="#989899" height="9.259" width="118.822" transform="matrix(-0.7921 0.6103 -0.6103 -0.7921 718.312 403.0444)" y="319.207" x="231.114"/>
   <rect id="svg_4" fill="#989899" height="118.831" width="9.256" transform="matrix(-0.6103 0.7922 -0.7922 -0.6103 545.9388 379.1212)" y="264.432" x="175.087"/>
  </g>
  <circle filter="url(#svg_5_blur)" id="svg_5" fill="#E0E2E2" r="31.633" cy="70.012" cx="236.565"/>
  <path filter="url(#svg_6_blur)" id="svg_6" fill="#878787" d="m207.662,74.922c0,13.687 12.935,24.786 28.896,24.786c15.957,0 28.896,-11.099 28.896,-24.786c-0.004,-13.69 -57.792,-13.69 -57.792,0z"/>
  <circle id="svg_7" fill="#CACCCE" r="33.955" cy="368.61" cx="236.565"/>
  <path id="svg_8" fill="#878787" d="m205.546,373.871c0,14.689 13.881,26.6 31.009,26.6s31.009,-11.911 31.009,-26.6c-0.001,-14.689 -62.018,-14.689 -62.018,0z"/>
  <path id="svg_9" fill="#7F7F7F" d="m258.072,404.401l-35.698,-12.475l33.645,-15.351c0.845,-0.385 1.399,-1.294 1.41,-2.307c0.007,-1.013 -0.527,-1.937 -1.361,-2.341l-29.019,-14.102l25.392,-13.881c0.722,-0.396 1.2,-1.182 1.264,-2.072c0.06,-0.89 -0.307,-1.75 -0.965,-2.262l-21.921,-17.071l18.511,-8.526c0.722,-0.333 1.245,-1.058 1.372,-1.915c0.131,-0.856 -0.146,-1.728 -0.733,-2.307l-16.667,-16.424c-0.939,-0.924 -2.378,-0.834 -3.209,0.213c-0.834,1.043 -0.748,2.64 0.191,3.568l13.949,13.747l-18.982,8.728c-0.767,0.352 -1.301,1.141 -1.391,2.057c-0.09,0.92 0.277,1.817 0.954,2.345l22.168,17.262l-26.334,14.401c-0.793,0.434 -1.29,1.339 -1.271,2.322c0.019,0.984 0.55,1.866 1.361,2.259l28.593,13.896l-34.498,15.736c-0.886,0.4 -1.451,1.38 -1.406,2.446c0.041,1.062 0.677,1.978 1.589,2.3l36.382,12.718l-37.474,21.192c-1.118,0.632 -1.563,2.154 -0.995,3.396c0.4,0.875 1.197,1.38 2.027,1.38c0.348,0 0.699,-0.086 1.028,-0.277l42.433,-23.997c0.823,-0.464 1.313,-1.436 1.234,-2.457c-0.076,-1.03 -0.7,-1.894 -1.579,-2.201z"/>
  <g id="svg_10">
   <path id="svg_11" fill="#9E9E9E" d="m369.833,295.714l-18.122,3.818l23.645,129.318c10.407,-7.524 20.212,-15.83 29.255,-24.909l-34.778,-108.227z"/>
   <path id="svg_12" fill="#9E9E9E" d="m103.796,295.714l-34.778,108.227c9.042,9.08 18.844,17.385 29.251,24.909l23.645,-129.322l-18.118,-3.814z"/>
  </g>
  <g id="svg_13">
   <path id="svg_14" fill="#878787" d="m360.005,298.392l-8.291,1.137l23.645,129.318c5.602,-4.05 11.013,-8.339 16.23,-12.853l-31.584,-117.602z"/>
   <path id="svg_15" fill="#878787" d="m113.623,298.392l-31.584,117.606c5.22,4.514 10.628,8.803 16.23,12.853l23.645,-129.322l-8.291,-1.137z"/>
   <rect id="svg_16" fill="#878787" height="9.259" width="99.101" transform="matrix(-0.9109 0.4126 -0.4126 -0.9109 652.0363 217.5704)" y="174.55" x="252.979"/>
   <rect id="svg_17" fill="#878787" height="9.26" width="80.693" transform="matrix(-0.1052 0.9945 -0.9945 -0.1052 609.1869 -125.7819)" y="206.552" x="320.836"/>
  </g>
  <rect filter="url(#svg_18_blur)" id="svg_18" fill="#ADADAD" height="94.459" width="9.259" transform="matrix(-0.5146, 0.8574, -0.8574, -0.5146, 547.292, -96.5358)" y="59.413" x="296.341"/>
  <rect id="svg_19" fill="#A0A0A0" height="9.259" width="100.365" transform="matrix(-0.8379 0.5458 -0.5458 -0.8379 660.1237 185.4471)" y="186.113" x="252.343"/>
  <polygon id="svg_20" fill="#ADADAD" points="241.464,231.906 236.554,239.755 349.059,284.57 353.969,276.721 "/>
  <g id="svg_21">
   <polygon id="svg_22" fill="#909396" points="237.829,189.581 232.194,196.933 351.015,279.694 356.647,272.342  "/>
   <polygon id="svg_23" fill="#909396" points="232.441,193.415 113.619,272.342 119.255,279.694 238.072,200.767  "/>
  </g>
  <g id="svg_24">
   <rect id="svg_25" fill="#878787" height="99.106" width="9.26" transform="matrix(-0.4125 0.911 -0.911 -0.4125 400.1795 100.2712)" y="129.628" x="163.126"/>
   <rect id="svg_26" fill="#878787" height="80.69" width="9.259" transform="matrix(-0.9945 0.1049 -0.1049 -0.9945 239.7816 409.8167)" y="170.869" x="104.484"/>
  </g>
  <polygon filter="url(#svg_27_blur)" id="svg_27" fill="#ADADAD" points="209.895,76.65 126.398,126.996 131.166,134.935 214.663,84.589 "/>
  <rect id="svg_28" fill="#A0A0A0" height="100.362" width="9.259" transform="matrix(-0.5459 0.8378 -0.8378 -0.5459 419.1181 154.3533)" y="140.569" x="163.103"/>
  <polygon id="svg_29" fill="#ADADAD" points="234.729,230.747 116.297,276.721 121.207,284.57 239.639,238.596 "/>
  <circle id="svg_30" fill="#9AA1A8" r="27.003" cy="190.382" cx="236.565"/>
  <circle id="svg_31" fill="#D1D1D1" r="27.003" cy="195.767" cx="236.565"/>
  <path id="svg_32" fill="#878787" d="m211.892,194.566c0,11.69 11.043,21.162 24.666,21.162s24.666,-9.472 24.666,-21.162c-0.004,-11.682 -49.332,-11.682 -49.332,0z"/>
  <rect filter="url(#svg_33_blur)" id="svg_33" fill="#C1C1C1" height="101.081" width="9.259" y="89.301" x="231.928"/>
  <circle id="svg_34" fill="#9AA1A8" r="23.144" cy="204.259" cx="236.565"/>
  <circle id="svg_35" fill="#D1D1D1" r="23.148" cy="208.893" cx="236.565"/>
  <path id="svg_36" fill="#878787" d="m215.414,207.853c0,10.018 9.465,18.137 21.14,18.137s21.14,-8.119 21.14,-18.137c0.004,-10.015 -42.28,-10.015 -42.28,0z"/>
  <path id="svg_37" fill="#A5A5A5" d="m247.354,263.674l-20.059,2.569l-20.059,172.278l60.951,0l-20.833,-174.847zm-16.499,31.573l13.204,0l15.145,134.703l-42.99,0l14.641,-134.703z"/>
  <circle id="svg_38" fill="#E0E2E2" r="30.863" cy="276.018" cx="353.838"/>
  <path id="svg_39" fill="#878787" d="m325.638,280.808c0,13.354 12.621,24.188 28.193,24.188c15.568,0 28.193,-10.83 28.193,-24.188s-56.386,-13.357 -56.386,0z"/>
  <circle filter="url(#svg_40_blur)" id="svg_40" fill="#E0E2E2" r="34.722" cy="144.852" cx="369.246"/>
  <path filter="url(#svg_41_blur)" id="svg_41" fill="#878787" d="m337.545,150.241c0,15.026 14.199,27.209 31.715,27.209c17.512,0 31.715,-12.184 31.715,-27.209c0.001,-15.025 -63.43,-15.025 -63.43,0z"/>
  <circle id="svg_42" fill="#9AA1A8" r="37.807" cy="239.744" cx="236.565"/>
  <path id="svg_43" fill="#E0E2E2" d="m236.554,209.659c-19.58,0 -35.683,14.88 -37.613,33.952c1.933,19.072 18.032,33.952 37.613,33.952c19.577,0 35.683,-14.88 37.613,-33.952c-1.93,-19.068 -18.032,-33.952 -37.613,-33.952z"/>
  <path id="svg_44" fill="#878787" d="m202.019,245.623c0,16.361 15.459,29.625 34.535,29.625c19.072,0 34.535,-13.264 34.535,-29.625s-69.07,-16.361 -69.07,0z"/>
  <circle filter="url(#svg_45_blur)" id="svg_45" fill="#E0E2E2" r="34.722" cy="144.852" cx="103.074"/>
  <path filter="url(#svg_46_blur)" id="svg_46" fill="#878787" d="m71.359,150.241c0,15.026 14.199,27.209 31.715,27.209s31.715,-12.184 31.715,-27.209c0,-15.025 -63.43,-15.025 -63.43,0z"/>
  <circle id="svg_47" fill="#E0E2E2" r="30.863" cy="276.018" cx="115.418"/>
  <path id="svg_48" fill="#878787" d="m87.229,280.808c0,13.354 12.621,24.188 28.193,24.188s28.193,-10.83 28.193,-24.188s-56.386,-13.357 -56.386,0z"/>
  <g id="svg_49">
   <path id="svg_50" fill="#526614" d="m72.136,348.491c-22.991,-32.183 -45.971,-37.628 -60.117,-37.126c17.64,53.21 53.599,98.048 100.449,127.015l52.335,0c-25.949,-7.417 -92.667,-89.889 -92.667,-89.889z"/>
   <path id="svg_51" fill="#526614" d="m400.991,348.491c0,0 -66.718,82.473 -92.667,89.888l52.833,0c46.846,-28.963 82.802,-73.797 100.445,-126.996c-14.098,-0.647 -37.351,4.547 -60.611,37.108z"/>
  </g>
  <path id="svg_52" fill="#677A1A" d="m363.243,437.044l-252.862,0c36.592,23.152 79.926,36.61 126.428,36.61c46.505,0 89.843,-13.458 126.434,-36.61z"/>
  <g id="svg_53"/>
  <g id="svg_54"/>
  <g id="svg_55"/>
  <g id="svg_56"/>
  <g id="svg_57"/>
  <g id="svg_58"/>
  <g id="svg_59"/>
  <g id="svg_60"/>
  <g id="svg_61"/>
  <g id="svg_62"/>
  <g id="svg_63"/>
  <g id="svg_64"/>
  <g id="svg_65"/>
  <g id="svg_66"/>
  <g id="svg_67"/>
  <text transform="matrix(0.98314, 0, 0, 0.946262, 0.865358, 2.42995)" font-weight="bold" xml:space="preserve" text-anchor="start" font-family="'Palatino Linotype', 'Book Antiqua', Palatino, serif" font-size="69" id="svg_69" y="121.90416" x="55.39559" fill-opacity="null" stroke-opacity="null" stroke-width="0" stroke="null" fill="#000000">CONTACT</text>
 </g>
</svg>